# xmcd
# Copyright (C) 1995-1998 Ti Kan
#
# Track frame offsets:
#       150
#       14615
#       24363
#       41213
#       53740
#       68460
#       80228
#       98843
#       106570
#       119988
#       135223
#       149333
#       172228
#       187265
#       201195
#       214503
#       227540
#       239513
#       249733
#       264795
#       276378
#       286793
#       294353
#       302228
#       307678
#       317525
#
# Disc length: 4340 seconds
#
# Revision: 0
# Processed by: cddbd v1.5.1PL0 Copyright (c) Steve Scherf et al.
# Submitted via: CD-Transfer v1.0
#
DISCID=7910f21a
DTITLE=Marlene Dietrich - 
DYEAR=90
DGENRE=
TTITLE0=Johnny
TTITLE1=I can't give you anything but love
TTITLE2=Lili Marlene
TTITLE3=Shir Hatan
TTITLE4=La vie en rose
TTITLE5=Laziest gal in town
TTITLE6=Frag nicht, warum ich gehe
TTITLE7=Lola
TTITLE8=Go 'way from my window
TTITLE9=I wish you love
TTITLE10=Honeysuckle rose
TTITLE11=Allein
TTITLE12=Black Market
TTITLE13=You go to my head
TTITLE14=You do something to me
TTITLE15=Such trying times
TTITLE16=You've got that look
TTITLE17=Near you
TTITLE18=Illusions
TTITLE19=I've been in love before
TTITLE20=Another spring, another love
TTITLE21=I may never go home anymore
TTITLE22=The boys in the backroom
TTITLE23=You're the cream in my coffee
TTITLE24=I will come back again
TTITLE25=Falling in love again
EXTD=
EXTT0=
EXTT1=
EXTT2=
EXTT3=
EXTT4=
EXTT5=
EXTT6=
EXTT7=
EXTT8=
EXTT9=
EXTT10=
EXTT11=
EXTT12=
EXTT13=
EXTT14=
EXTT15=
EXTT16=
EXTT17=
EXTT18=
EXTT19=
EXTT20=
EXTT21=
EXTT22=
EXTT23=
EXTT24=
EXTT25=
PLAYORDER=
